<svg width="30" height="30" viewBox="0 0 30 30" fill="none" xmlns="http://www.w3.org/2000/svg">
<rect width="30" height="30" rx="6" fill="#0669AF"/>
<path d="M13.9286 4V8H11.9444L15.9127 12L19.881 8H17.8968V4H13.9286ZM5 6V8H6.98413L10.5556 15.59L9.21627 18.04C9.05754 18.32 8.96825 18.65 8.96825 19C8.96825 19.5304 9.1773 20.0391 9.54939 20.4142C9.92149 20.7893 10.4262 21 10.9524 21H22.8571V19H11.369C11.2401 19 11.121 18.89 11.121 18.75L11.1508 18.63L12.0437 17H19.4345C20.1786 17 20.8333 16.59 21.1706 15.97L25 8.96L23.2738 8H23.2639L22.1726 10L19.4345 15H12.4702L12.3413 14.73L10.119 10L9.17659 8L8.24405 6H5ZM10.9524 22C10.4262 22 9.92149 22.2107 9.54939 22.5858C9.1773 22.9609 8.96825 23.4696 8.96825 24C8.96825 24.5304 9.1773 25.0391 9.54939 25.4142C9.92149 25.7893 10.4262 26 10.9524 26C11.4786 26 11.9833 25.7893 12.3554 25.4142C12.7275 25.0391 12.9365 24.5304 12.9365 24C12.9365 23.4696 12.7275 22.9609 12.3554 22.5858C11.9833 22.2107 11.4786 22 10.9524 22ZM20.873 22C20.3468 22 19.8421 22.2107 19.47 22.5858C19.0979 22.9609 18.8889 23.4696 18.8889 24C18.8889 24.5304 19.0979 25.0391 19.47 25.4142C19.8421 25.7893 20.3468 26 20.873 26C21.3992 26 21.9039 25.7893 22.276 25.4142C22.6481 25.0391 22.8571 24.5304 22.8571 24C22.8571 23.4696 22.6481 22.9609 22.276 22.5858C21.9039 22.2107 21.3992 22 20.873 22Z" fill="white"/>
</svg>
